<?xml version="1.0" encoding="UTF-8" standalone="no"?>
<!DOCTYPE svg PUBLIC "-//W3C//DTD SVG 1.1//EN" "http://www.w3.org/Graphics/SVG/1.1/DTD/svg11.dtd">
<svg width="100%" height="100%" viewBox="0 0 1080 692" version="1.1" xmlns="http://www.w3.org/2000/svg" xmlns:xlink="http://www.w3.org/1999/xlink" xml:space="preserve" xmlns:serif="http://www.serif.com/" style="fill-rule:evenodd;clip-rule:evenodd;stroke-linejoin:round;stroke-miterlimit:2;">
    <g transform="matrix(1,0,0,0.640593,0,0)">
        <rect id="Artboard1" x="0" y="0" width="1080" height="1080" style="fill:none;"/>
        <g id="Artboard11" serif:id="Artboard1">
            <g id="Birds" transform="matrix(0.325074,0,0,0.568625,-2714.47,-585.175)">
                <g transform="matrix(1.15156,0,0,1.01685,-1124.81,0)">
                    <path d="M9691,1581.84C9730.29,1525.89 9804.19,1458.02 9845.17,1431.37C9854.7,1425.17 9867.42,1427.96 9873.55,1437.59C9879.68,1447.22 9876.92,1460.07 9867.39,1466.26C9830.74,1490.1 9763.95,1549.73 9728.06,1599.56C9744.98,1592.86 9763.53,1582.74 9782.67,1573.6C9817.76,1556.84 9854.48,1543.22 9887.31,1547.78C9887.97,1547.87 9888.63,1548 9889.27,1548.15C9901.3,1551.05 9991.37,1548.11 10037.5,1649.02C10068.5,1716.92 10036,1798.16 10021.9,1838.23C9979.83,1958.21 9900.91,2057.98 9822.88,2154.99C9784.9,2202.22 9677.87,2372.51 9665.67,2411.46C9663.02,2419.93 9655.33,2425.75 9646.55,2425.94C9637.76,2426.14 9629.83,2420.66 9626.81,2412.32C9612.62,2373.06 9554.03,2232.84 9495.11,2152.98C9454.69,2098.2 9298.16,1855.86 9282.85,1797.84C9253.19,1685.47 9327.03,1595.96 9425.08,1572.15C9460.59,1563.52 9503.95,1559.18 9539.81,1566.8C9568.72,1572.95 9595.59,1579.23 9623.08,1589.97C9637.49,1595.6 9646.22,1601.38 9656.64,1604.93C9634.52,1559.75 9599.63,1534.22 9560.04,1494.4C9552,1486.32 9551.97,1473.17 9559.96,1465.06C9567.95,1456.94 9580.97,1456.9 9589,1464.98C9630.84,1507.06 9666.79,1535.69 9691,1581.84ZM9689.73,1649.47C9689.63,1649.48 9689.54,1649.49 9689.44,1649.5C9650.88,1652.24 9640.48,1641.25 9608.27,1628.67C9582.89,1618.76 9558.05,1613.09 9531.36,1607.41C9501.13,1600.98 9464.61,1605.22 9434.67,1612.5C9358.38,1631.03 9299.44,1699.71 9322.52,1787.15C9337.26,1842.98 9489.12,2075.45 9528.02,2128.17C9574.96,2191.77 9621.82,2292.09 9647.87,2354.03C9685.48,2284.59 9759.97,2167.43 9791.02,2128.82C9866.11,2035.45 9942.71,1939.84 9983.22,1824.36C9989.43,1806.66 10000.3,1779.93 10006.1,1750.09C10011.3,1723.19 10012.6,1693.48 10000.2,1666.42C9964.27,1587.8 9893.26,1590.62 9880.65,1588.69L9881.72,1588.89C9855.99,1585.31 9827.72,1597.98 9800.22,1611.12C9766.76,1627.1 9734.35,1644.43 9708.21,1647.8C9706.17,1648.06 9694.08,1649.18 9689.73,1649.47Z" style="fill:white;"/>
                </g>
                <g transform="matrix(1.15156,0,0,1.01685,-1124.81,0)">
                    <path d="M9898.47,1534.98C9903.61,1537.79 9915.64,1544.29 9927.96,1550.46C10014.6,1593.85 10230.6,1694.69 10277.1,1716.31C10399.1,1772.96 10546.3,1825.55 10663.6,1876.31C10744.5,1911.34 10811.5,1945.95 10848,1979.95C10915.6,2042.99 10946.5,2134.26 10972.8,2220.5C10982.1,2250.94 11007.5,2345.96 11010.5,2364.16C11013,2378.5 11004.7,2385.71 11003.3,2386.83C10998.2,2391 10992.2,2392.51 10985.3,2390.72C10983.5,2390.26 10977.2,2387.33 10968.7,2380.74C10948.7,2365.26 10901.5,2324.89 10863.5,2290.45C10791.3,2224.84 10725.3,2146.45 10632.9,2108.41C10622.4,2104.1 10617.3,2091.98 10621.6,2081.37C10625.9,2070.77 10637.8,2065.66 10648.3,2069.98C10745.2,2109.84 10815.3,2190.83 10891,2259.58C10912.3,2278.93 10936.6,2300.24 10957.1,2317.66C10948.7,2285.89 10938.7,2249.34 10933.6,2232.72C10909.4,2153.33 10882.4,2068.5 10820.1,2010.46C10786,1978.7 10723,1947.19 10647.4,1914.46C10529.8,1863.57 10382.2,1810.81 10260,1754.02C10207.3,1729.58 9939.32,1604.4 9883.26,1574.01C9876.68,1570.43 9872.39,1567.7 9870.63,1566.29C9867.16,1563.51 9865.51,1560.81 9864.66,1559.21C9834.79,1502.99 9829.8,1438.66 9836.44,1373.64C9842.75,1311.84 9859.51,1249.44 9873.28,1193.67C9874.81,1187.48 9879.07,1182.34 9884.84,1179.74C10000.4,1127.69 10216.4,1092.39 10234.2,1091.83C10301.4,1089.72 10343,1113.99 10415.1,1125.13C10426.3,1126.87 10434,1137.46 10432.3,1148.78C10430.6,1160.1 10420.1,1167.88 10408.9,1166.15C10339.7,1155.46 10300,1131.29 10235.5,1133.31C10218.9,1133.83 10023,1166.09 9910.64,1213.68C9897.82,1265.07 9883.02,1321.73 9877.28,1377.9C9871.68,1432.73 9874.64,1487.14 9898.47,1534.98Z" style="fill:white;"/>
                </g>
                <g transform="matrix(1.15156,0,0,1.01685,-1124.81,0)">
                    <path d="M10508.5,2746.81C10539.8,2715.12 10560.2,2650.12 10575.3,2574.2C10599.6,2451.2 10607.2,2299.72 10608.8,2201.1C10609.8,2134.62 10612.7,2067.87 10607.4,2001.5C10598.5,1891.44 10535.4,1651.5 10478.8,1525.32C10420.6,1395.62 10377.7,1307.27 10335.9,1245.84C10296.3,1187.69 10258.1,1154.68 10207.6,1133.61C10197.1,1129.25 10192.1,1117.11 10196.4,1106.52C10200.7,1095.93 10212.7,1090.88 10223.2,1095.25C10334.5,1141.66 10394.9,1237.77 10516.2,1508.18C10574.5,1638.01 10639.2,1884.9 10648.3,1998.13C10653.7,2065.84 10650.9,2133.95 10649.8,2201.77C10647.9,2319.37 10637.5,2510.46 10601.4,2643.11C10584.9,2703.76 10562.5,2752.52 10534.4,2779.17C10531.9,2781.61 10526.9,2784.83 10519.1,2787.03C10510.5,2789.45 10495.7,2791.7 10476.4,2793.49C10405.3,2800.12 10269.7,2802.03 10184,2798.49C10144.4,2796.85 10114.7,2793.5 10104.6,2789.66C10084.5,2782.03 10064.1,2756.63 10047.8,2721.32C10015.6,2651.66 9993.23,2543.41 9987.29,2513.47C9952.1,2335.9 9919.58,2172.62 9942.95,1992.8C9947.6,1956.95 9971.52,1863.81 9981.69,1828.96C9984.9,1817.98 9996.33,1811.69 10007.2,1814.93C10018.1,1818.17 10024.3,1829.72 10021.1,1840.7C10011.3,1874.21 9988.14,1963.74 9983.66,1998.21C9960.9,2173.37 9993.27,2332.35 10027.6,2505.32C10033.2,2533.89 10054.2,2637.27 10085,2703.74C10091,2716.81 10097.4,2728.37 10104.2,2737.32C10109.1,2743.71 10113.7,2748.8 10119,2750.81C10127.5,2754.03 10152.5,2755.66 10185.7,2757.02C10269.8,2760.5 10402.8,2758.67 10472.6,2752.17C10487.8,2750.76 10504.2,2747.64 10508.5,2746.81Z" style="fill:white;"/>
                </g>
                <g transform="matrix(1.15156,0,0,1.01685,-1124.81,0)">
                    <path d="M9938.23,2202.97C9944.31,2193.31 9957.01,2190.46 9966.57,2196.61C9976.13,2202.76 9978.95,2215.59 9972.87,2225.25C9943.98,2271.14 9696.93,2511.07 9668.29,2527.08C9658.38,2532.62 9645.88,2528.99 9640.39,2518.97C9634.91,2508.95 9638.5,2496.31 9648.42,2490.77C9675.69,2475.52 9910.71,2246.68 9938.23,2202.97Z" style="fill:white;"/>
                </g>
                <g transform="matrix(1.15156,0,0,1.01685,-1124.81,0)">
                    <path d="M9637.83,2508.84C9637.81,2508.61 9637.78,2508.34 9637.76,2508.11C9636.23,2492.04 9625.9,2411.67 9625.42,2407.85C9623.97,2396.49 9631.92,2386.08 9643.16,2384.62C9654.39,2383.16 9664.69,2391.19 9666.14,2402.55C9666.63,2406.42 9677.08,2487.85 9678.63,2504.14C9679.16,2509.66 9678.51,2512.99 9678.37,2513.61C9675.17,2527.48 9664.74,2529.3 9659.7,2529.63C9648.39,2530.38 9638.61,2521.71 9637.87,2510.28C9637.84,2509.8 9637.82,2509.31 9637.83,2508.84Z" style="fill:white;"/>
                </g>
                <g transform="matrix(1.15156,0,0,1.01685,-1124.81,0)">
                    <path d="M9662.26,2488.55C9671.63,2490.38 9678.76,2498.66 9678.88,2508.67C9679.02,2520.12 9669.93,2529.53 9658.6,2529.67C9656.13,2529.7 9652.27,2529.27 9647.39,2527.3C9640.85,2524.65 9628.01,2517.03 9611.24,2505.7C9534.31,2453.72 9365.07,2320.61 9348.28,2297.69C9341.54,2288.49 9343.46,2275.48 9352.57,2268.67C9361.67,2261.86 9374.54,2263.8 9381.28,2273C9397.36,2294.96 9560.36,2421.4 9634.06,2471.2C9646.16,2479.38 9659.79,2487.15 9662.26,2488.55Z" style="fill:white;"/>
                </g>
                <g transform="matrix(1.15156,0,0,1.01685,-1124.81,0)">
                    <path d="M8733.13,1836.41C8780.71,1694.63 8843.98,1558.18 8920.61,1432.23C8996.5,1307.49 9094.29,1179.8 9232.83,1121.84C9288.52,1098.54 9376.53,1090.31 9435.11,1111.02C9612.8,1173.84 9614.91,1362.71 9602.97,1445.11C9599.67,1467.9 9582.65,1493.25 9557.26,1517.29C9506.08,1565.75 9421.24,1611.89 9387.28,1630.11C9354.68,1647.6 9138.93,1747.21 9042.68,1780.34C8971.69,1804.78 8862.24,1832.64 8765.99,1867.95C8717.85,2016.15 8687.23,2170.01 8676.91,2323.38C8667.65,2461.04 8682.5,2597.98 8749.23,2720.79C8757.95,2736.85 8772.07,2742.64 8780.78,2742.64C8800.3,2742.65 8996.64,2759.44 9130.84,2757.76C9164.23,2757.34 9193.65,2755.8 9215.16,2752.44C9226.27,2750.7 9234.84,2749 9239.6,2745.92C9266.21,2728.7 9283.88,2694.86 9297.16,2655.7C9319.08,2591.05 9327.63,2511.68 9333.06,2455.06C9350.23,2275.76 9324.17,1982.6 9284.97,1807.62C9282.46,1796.45 9289.4,1785.33 9300.45,1782.8C9311.51,1780.27 9322.51,1787.28 9325.01,1798.45C9365.02,1976.99 9391.45,2276.12 9373.92,2459.06C9368.24,2518.36 9358.96,2601.44 9336,2669.16C9319.36,2718.25 9295.1,2759.28 9261.74,2780.87C9255.45,2784.93 9245.71,2788.66 9232.91,2791.36C9209.35,2796.34 9173.27,2798.73 9131.34,2799.25C8996.95,2800.93 8800.31,2784.15 8780.77,2784.14C8762.54,2784.13 8731.49,2774.35 8713.24,2740.76C8642.65,2610.87 8626.15,2466.17 8635.94,2320.57C8639.35,2269.91 8644.93,2219.21 8652.57,2168.66C8582.36,2200.77 8528.53,2240.59 8470.08,2296.42C8450.48,2315.14 8387.48,2377.58 8375.03,2389.8C8359.59,2404.95 8341.87,2389.07 8341.79,2388.95C8337.86,2383.32 8334.26,2372.46 8332.5,2359C8329.51,2336.14 8330.05,2304.06 8330.74,2292.14C8336.77,2187.9 8372.16,2115.14 8438.97,2040.45C8483.77,1990.36 8558.03,1928.3 8615.53,1892.23C8648.09,1871.8 8688.95,1853.31 8733.13,1836.41ZM8660.57,2120.03C8674.51,2041.62 8693.38,1963.76 8716.82,1887.25C8687.27,1899.74 8660.11,1913.1 8637.18,1927.49C8582.56,1961.75 8511.99,2020.69 8469.43,2068.28C8409.33,2135.47 8377.16,2200.78 8371.73,2294.56C8371.29,2302.12 8370.9,2318.79 8371.68,2335.11C8395.65,2311.45 8428.63,2278.91 8441.88,2266.26C8510.65,2200.58 8573.48,2155.93 8660.57,2120.03ZM8782.79,1818.46C8871.43,1788.01 8965.6,1763.03 9029.44,1741.06C9124.01,1708.51 9336,1610.64 9368.03,1593.46C9395.73,1578.59 9459.14,1544.4 9507.36,1505.86C9525.42,1491.43 9541.33,1476.49 9551.81,1461.68C9557.29,1453.93 9561.28,1446.45 9562.35,1439.1C9572.6,1368.28 9574.27,1204.18 9421.56,1150.19C9371.44,1132.47 9296.18,1140.25 9248.54,1160.18C9117.98,1214.8 9027.1,1336.42 8955.59,1453.96C8886.2,1568 8827.99,1690.84 8782.79,1818.46Z" style="fill:white;"/>
                </g>
            </g>
        </g>
    </g>
</svg>
