<?xml version="1.0" standalone="no"?>
<!DOCTYPE svg PUBLIC "-//W3C//DTD SVG 20010904//EN"
 "http://www.w3.org/TR/2001/REC-SVG-20010904/DTD/svg10.dtd">
<svg version="1.0" xmlns="http://www.w3.org/2000/svg"
 width="700.000000pt" height="700.000000pt" viewBox="0 0 700.000000 700.000000"
 preserveAspectRatio="xMidYMid meet">
<metadata>
Created by potrace 1.14, written by Peter Selinger 2001-2017
</metadata>
<g transform="translate(0.000000,700.000000) scale(0.100000,-0.100000)"
fill="#000000" stroke="none">
<path d="M5005 6609 c-50 -7 -84 -13 -138 -24 -34 -7 -204 -66 -262 -90 -56
-24 -135 -61 -315 -148 -274 -132 -387 -170 -540 -183 -206 -18 -281 -6 -459
73 -69 30 -168 71 -221 90 -146 53 -506 142 -645 159 -88 11 -353 4 -432 -10
-10 -2 -38 -7 -63 -11 -25 -4 -54 -9 -65 -11 -11 -2 -33 -7 -50 -9 -55 -10
-179 -46 -250 -72 -100 -37 -178 -77 -275 -141 -108 -72 -119 -81 -215 -177
-124 -125 -220 -280 -273 -440 -19 -55 -24 -77 -37 -145 -3 -14 -8 -38 -11
-54 -8 -36 -8 -259 0 -303 3 -18 8 -48 11 -65 21 -125 64 -231 182 -458 47
-91 91 -175 97 -187 6 -13 14 -23 19 -23 4 0 7 -4 7 -9 0 -24 406 -696 596
-986 32 -49 61 -94 64 -100 12 -23 450 -683 479 -721 9 -12 23 -32 31 -44 27
-40 189 -265 197 -275 13 -14 213 -335 213 -340 0 -3 13 -26 29 -52 50 -81
106 -188 234 -443 105 -209 163 -332 302 -645 28 -62 106 -254 130 -317 16
-43 35 -56 35 -25 0 12 102 219 153 309 68 121 119 210 166 286 28 46 51 85
51 88 0 2 15 28 34 57 19 28 80 126 136 217 141 227 243 384 252 388 5 2 8 7
8 12 0 9 191 293 273 405 47 64 234 303 247 315 3 3 23 28 45 55 22 28 48 59
57 70 9 11 69 88 133 170 64 83 122 157 128 165 21 25 181 242 207 280 13 19
27 37 30 40 20 15 293 440 375 585 82 142 255 482 255 499 0 3 11 29 24 58 32
71 129 333 181 493 56 169 81 270 100 400 4 22 8 51 11 65 6 34 5 248 -1 285
-26 148 -58 244 -115 350 -78 142 -190 280 -288 352 -20 16 -39 30 -42 33 -10
12 -107 67 -164 94 -94 44 -215 80 -306 92 -30 3 -66 8 -80 10 -14 2 -59 6
-100 9 -41 4 -79 7 -85 9 -5 1 -32 -1 -60 -5z"/>
</g>
</svg>
